<?xml version="1.0" encoding="UTF-8" standalone="no"?>
<svg
   version="1.0"
   width="900.000000pt"
   height="123.000000pt"
   viewBox="0 0 900.000000 123.000000"
   preserveAspectRatio="xMidYMid meet"
   id="svg72"
   sodipodi:docname="logo_ukr.svg"
   inkscape:version="1.2.1 (9c6d41e410, 2022-07-14)"
   xmlns:inkscape="http://www.inkscape.org/namespaces/inkscape"
   xmlns:sodipodi="http://sodipodi.sourceforge.net/DTD/sodipodi-0.dtd"
   xmlns="http://www.w3.org/2000/svg"
   xmlns:svg="http://www.w3.org/2000/svg">
  <defs
     id="defs76" />
  <sodipodi:namedview
     id="namedview74"
     pagecolor="#ffffff"
     bordercolor="#000000"
     borderopacity="0.25"
     inkscape:showpageshadow="2"
     inkscape:pageopacity="0.0"
     inkscape:pagecheckerboard="0"
     inkscape:deskcolor="#d1d1d1"
     inkscape:document-units="pt"
     showgrid="false"
     inkscape:zoom="1.0067873"
     inkscape:cx="530.89663"
     inkscape:cy="122.17079"
     inkscape:window-width="1920"
     inkscape:window-height="1057"
     inkscape:window-x="-8"
     inkscape:window-y="-8"
     inkscape:window-maximized="1"
     inkscape:current-layer="svg72" />
  <metadata
     id="metadata40">
Created by potrace 1.10, written by Peter Selinger 2001-2011
</metadata>
  <g
     transform="translate(0.000000,123.000000) scale(0.100000,-0.100000)"
     fill="#000000"
     stroke="none"
     id="g70">
    <path
       d="M264 1074 c-14 -20 -15 -33 -8 -62 13 -55 37 -59 319 -52 132 3 250 2 263 -2 21 -7 23 -12 20 -80 l-3 -73 -282 -1 c-218 0 -285 -3 -297 -13 -14 -11 -16 -41 -16 -199 0 -164 2 -186 18 -198 13 -10 89 -13 349 -14 332 0 332 0 347 22 24 34 24 642 0 676 -15 22 -15 22 -354 22 l-340 0 -16 -26z m588 -417 c12 -18 10 -125 -2 -132 -6 -4 -108 -7 -227 -7 -169 0 -218 3 -224 14 -14 21 -10 115 4 130 18 18 438 13 449 -5z"
       id="path46" />
    <path
       d="M1160 953 c-38 -14 -40 -28 -40 -363 0 -304 1 -328 18 -343 17 -15 56 -17 350 -17 l331 0 18 23 c17 22 18 48 17 347 l-2 324 -23 19 c-30 24 -86 17 -112 -15 -13 -18 -16 -35 -13 -73 5 -42 10 -438 7 -471 -1 -16 -438 -16 -449 0 -4 6 -5 119 -2 251 3 132 1 255 -3 272 -11 45 -49 63 -97 46z"
       id="path48" />
    <path
       d="M2022 952 c-33 -5 -57 -56 -42 -92 18 -43 55 -53 183 -49 l112 4 -3 -271 -3 -271 32 -27 c24 -21 39 -26 58 -21 39 9 64 40 65 77 0 18 -2 137 -3 265 -2 127 0 236 4 242 4 7 41 9 110 4 119 -7 157 3 175 47 10 24 9 34 -6 59 -11 18 -27 31 -39 31 -197 3 -626 4 -643 2z"
       id="path50" />
    <path
       d="M2895 953 c-11 -3 -28 -12 -37 -21 -16 -14 -18 -43 -18 -337 l0 -322 23 -21 c23 -22 28 -22 355 -22 l332 0 16 25 c14 22 16 64 15 337 -1 261 -3 315 -16 335 l-15 23 -304 0 c-168 0 -310 2 -318 4 -7 2 -22 1 -33 -1z m543 -360 l2 -220 -225 0 c-124 0 -225 3 -226 8 -3 49 0 419 4 425 3 5 103 8 224 8 l218 -1 3 -220z"
       id="path52" />
    <path
       d="M4900 953 c-272 -3 -306 -5 -317 -20 -10 -13 -13 -98 -13 -344 0 -327 0 -328 22 -343 19 -14 69 -16 345 -16 310 0 324 1 343 20 30 30 27 83 -7 110 -28 22 -32 22 -293 19 l-265 -4 -5 205 c-3 113 -2 212 2 220 6 13 43 15 266 11 305 -4 321 0 322 76 0 37 -39 74 -74 71 -11 -2 -158 -4 -326 -5z"
       id="path54" />
    <path
       d="M5474 951 c-41 -8 -60 -83 -28 -115 26 -26 55 -29 320 -24 292 4 268 13 262 -97 l-3 -60 -276 4 c-351 5 -319 26 -319 -212 0 -168 1 -174 23 -195 23 -22 28 -22 348 -22 l326 0 21 23 c22 23 22 28 22 344 0 298 -1 321 -18 337 -17 14 -56 17 -339 19 -176 1 -328 0 -339 -2z m551 -502 l0 -74 -225 0 -225 0 -3 69 c-2 38 1 72 7 75 5 3 107 6 228 5 l218 -1 0 -74z"
       id="path56" />
    <path
       d="M7197 951 c-22 -8 -36 -35 -37 -73 0 -66 13 -68 364 -68 209 0 313 4 330 12 34 15 45 68 22 103 -9 14 -22 25 -29 25 -105 3 -640 4 -650 1z"
       id="path58" />
    <path
       d="M8354 953 c-247 -3 -304 -6 -314 -18 -13 -16 -19 -663 -6 -684 12 -19 55 -32 82 -25 52 13 57 44 52 321 -3 177 -1 256 6 261 6 3 124 5 262 3 276 -3 305 2 318 54 12 48 -35 100 -84 93 -8 -2 -151 -4 -316 -5z"
       id="path60" />
    <path
       d="M6309 929 c-7 -15 -11 -122 -12 -339 0 -273 2 -320 16 -339 21 -31 80 -33 108 -4 21 20 21 29 20 262 -1 133 -4 248 -7 256 -3 7 -1 22 4 32 9 17 27 18 229 17 l218 -1 3 -276 2 -276 27 -21 c31 -24 66 -20 98 11 19 19 20 33 20 327 1 221 -3 316 -12 340 l-12 32 -345 0 c-342 0 -345 0 -357 -21z"
       id="path62" />
    <path
       d="M7177 642 c-23 -25 -22 -85 1 -105 17 -15 55 -17 345 -17 319 0 327 0 348 21 17 17 20 29 15 58 -3 20 -13 42 -23 48 -13 10 -97 13 -343 13 -304 0 -328 -1 -343 -18z"
       id="path66" />
    <path
       d="M7183 357 c-17 -14 -23 -29 -23 -56 0 -72 -4 -71 363 -71 314 0 328 1 347 20 11 11 20 33 20 50 0 27 -28 69 -47 71 -5 0 -149 1 -322 2 -291 2 -316 1 -338 -16z"
       id="path68" />
  </g>
  <path
     style="fill:#000000;stroke-width:0.0438962"
     d=""
     id="path1633"
     transform="scale(0.75)" />
  <path
     style="fill:#ffff00;fill-opacity:1;stroke-width:0.175585"
     d=""
     id="path4390"
     transform="scale(0.75)" />
  <path
     id="path4474"
     style="fill:#0057b8;fill-opacity:1;stroke-width:0.75"
     d="m 413.32091,12.07735 c -18.19531,-0.01223 -38.95644,0.721031 -40.76368,3.461426 -2.7953,2.786212 -1.41825,35.894926 -0.64746,35.047852 1.37718,6.63789 15.7996,4.998609 16.11182,-0.323731 0.22759,-5.602151 -0.0412,-13.67813 -0.30469,-20.863769 l 50.22803,-0.376465 c 8.35193,-0.09642 15.58408,-11.910381 3.0498,-16.160156 -0.92288,-0.316028 -13.522,-0.775644 -27.67382,-0.785157 z" />
  <path
     id="path4599"
     style="fill:#ffd700;fill-opacity:1;stroke-width:0.75"
     d="m 438.40278,40.935021 c -3.60938,-0.06979 -7.23983,2.612095 -7.95849,8.333496 -0.0453,1.080774 -0.62455,3.360675 0.57422,11.075684 0.0378,3.64094 -1.06687,7.134309 -1.46778,8.020019 -33.65378,0.406968 -35.75517,-0.616172 -53.91504,0.202149 -1.34505,1.275378 -8.54654,7.701616 1.25351,15.895026 l 61.84757,0.27832 c 4.41789,0.15411 7.13532,-3.22671 7.91601,-5.30713 -0.17865,-10.216966 0.3889,-24.220513 -0.42187,-30.323736 -0.63063,-5.283294 -4.21875,-8.104042 -7.82813,-8.173828 z"
     sodipodi:nodetypes="sccccccccs" />
</svg>
